<svg width="133" height="97" viewBox="0 0 133 97" fill="none" xmlns="http://www.w3.org/2000/svg">
<g opacity="0.26">
<mask id="mask0_63_157" style="mask-type:alpha" maskUnits="userSpaceOnUse" x="122" y="79" width="11" height="12">
<path d="M127.288 79.5917C124.4 79.5827 122.052 81.9091 122.043 84.7879C122.034 87.6666 124.368 90.0075 127.255 90.0165C130.143 90.0255 132.491 87.6991 132.5 84.8203C132.509 81.9416 130.175 79.6006 127.288 79.5917Z" fill="url(#paint0_linear_63_157)"/>
</mask>
<g mask="url(#mask0_63_157)">
<path d="M127.288 79.5917C124.4 79.5827 122.052 81.9091 122.043 84.7879C122.034 87.6666 124.368 90.0075 127.255 90.0165C130.143 90.0255 132.491 87.6991 132.5 84.8203C132.509 81.9416 130.175 79.6006 127.288 79.5917Z" fill="url(#paint1_linear_63_157)"/>
</g>
<mask id="mask1_63_157" style="mask-type:alpha" maskUnits="userSpaceOnUse" x="91" y="79" width="12" height="11">
<path d="M97.0066 79.4979C94.1191 79.489 91.771 81.8154 91.7621 84.6941C91.7531 87.5729 94.0867 89.9138 96.9743 89.9227C99.8618 89.9317 102.21 87.6053 102.219 84.7266C102.228 81.8478 99.8942 79.5069 97.0066 79.4979Z" fill="url(#paint2_linear_63_157)"/>
</mask>
<g mask="url(#mask1_63_157)">
<path d="M97.0066 79.4979C94.1191 79.489 91.771 81.8154 91.7621 84.6941C91.7531 87.5729 94.0867 89.9138 96.9743 89.9227C99.8618 89.9317 102.21 87.6053 102.219 84.7266C102.228 81.8478 99.8942 79.5069 97.0066 79.4979Z" fill="url(#paint3_linear_63_157)"/>
</g>
<mask id="mask2_63_157" style="mask-type:alpha" maskUnits="userSpaceOnUse" x="61" y="79" width="11" height="11">
<path d="M66.7257 79.4039C63.8382 79.395 61.4901 81.7214 61.4812 84.6001C61.4722 87.4789 63.8058 89.8198 66.6934 89.8288C69.5809 89.8377 71.929 87.5113 71.9379 84.6326C71.9468 81.7538 69.6132 79.4129 66.7257 79.4039Z" fill="url(#paint4_linear_63_157)"/>
</mask>
<g mask="url(#mask2_63_157)">
<path d="M66.7257 79.4039C63.8382 79.395 61.4901 81.7214 61.4812 84.6001C61.4722 87.4789 63.8058 89.8198 66.6934 89.8288C69.5809 89.8377 71.929 87.5113 71.9379 84.6326C71.9468 81.7538 69.6132 79.4129 66.7257 79.4039Z" fill="url(#paint5_linear_63_157)"/>
</g>
<mask id="mask3_63_157" style="mask-type:alpha" maskUnits="userSpaceOnUse" x="31" y="79" width="11" height="11">
<path d="M36.4447 79.31C33.5572 79.301 31.2091 81.6274 31.2002 84.5061C31.1913 87.3849 33.5248 89.7258 36.4124 89.7348C39.2999 89.7437 41.648 87.4173 41.6569 84.5386C41.6658 81.6598 39.3323 79.3189 36.4447 79.31Z" fill="url(#paint6_linear_63_157)"/>
</mask>
<g mask="url(#mask3_63_157)">
<path d="M36.4447 79.31C33.5572 79.301 31.2091 81.6274 31.2002 84.5061C31.1913 87.3849 33.5248 89.7258 36.4124 89.7348C39.2999 89.7437 41.648 87.4173 41.6569 84.5386C41.6658 81.6598 39.3323 79.3189 36.4447 79.31Z" fill="url(#paint7_linear_63_157)"/>
</g>
<mask id="mask4_63_157" style="mask-type:alpha" maskUnits="userSpaceOnUse" x="0" y="79" width="12" height="11">
<path d="M6.16385 79.216C3.2763 79.207 0.928237 81.5334 0.919306 84.4121C0.910375 87.2909 3.24396 89.6318 6.13151 89.6408C9.01906 89.6497 11.3671 87.3233 11.376 84.4446C11.385 81.5658 9.0514 79.2249 6.16385 79.216Z" fill="url(#paint8_linear_63_157)"/>
</mask>
<g mask="url(#mask4_63_157)">
<path d="M6.16385 79.216C3.2763 79.207 0.928237 81.5334 0.919306 84.4121C0.910375 87.2909 3.24396 89.6318 6.13151 89.6408C9.01906 89.6497 11.3671 87.3233 11.376 84.4446C11.385 81.5658 9.0514 79.2249 6.16385 79.216Z" fill="url(#paint9_linear_63_157)"/>
</g>
<mask id="mask5_63_157" style="mask-type:alpha" maskUnits="userSpaceOnUse" x="122" y="53" width="11" height="11">
<path d="M127.369 53.4751C124.481 53.4662 122.133 55.7926 122.124 58.6714C122.115 61.5501 124.449 63.8911 127.336 63.9C130.224 63.909 132.572 61.5826 132.581 58.7038C132.59 55.825 130.256 53.4841 127.369 53.4751Z" fill="url(#paint10_linear_63_157)"/>
</mask>
<g mask="url(#mask5_63_157)">
<path d="M127.369 53.4751C124.481 53.4662 122.133 55.7926 122.124 58.6714C122.115 61.5501 124.449 63.8911 127.336 63.9C130.224 63.909 132.572 61.5826 132.581 58.7038C132.59 55.825 130.256 53.4841 127.369 53.4751Z" fill="url(#paint11_linear_63_157)"/>
</g>
<mask id="mask6_63_157" style="mask-type:alpha" maskUnits="userSpaceOnUse" x="91" y="53" width="12" height="11">
<path d="M97.0876 53.3814C94.2001 53.3724 91.852 55.6988 91.8431 58.5776C91.8342 61.4564 94.1678 63.7973 97.0553 63.8063C99.9428 63.8152 102.291 61.4888 102.3 58.6101C102.309 55.7313 99.9752 53.3903 97.0876 53.3814Z" fill="url(#paint12_linear_63_157)"/>
</mask>
<g mask="url(#mask6_63_157)">
<path d="M97.0876 53.3814C94.2001 53.3724 91.852 55.6988 91.8431 58.5776C91.8342 61.4564 94.1678 63.7973 97.0553 63.8063C99.9428 63.8152 102.291 61.4888 102.3 58.6101C102.309 55.7313 99.9752 53.3903 97.0876 53.3814Z" fill="url(#paint13_linear_63_157)"/>
</g>
<mask id="mask7_63_157" style="mask-type:alpha" maskUnits="userSpaceOnUse" x="61" y="53" width="12" height="11">
<path d="M66.8067 53.2874C63.9192 53.2784 61.5711 55.6049 61.5622 58.4836C61.5533 61.3624 63.8868 63.7033 66.7744 63.7123C69.6619 63.7213 72.01 61.3948 72.0189 58.5161C72.0278 55.6373 69.6943 53.2963 66.8067 53.2874Z" fill="url(#paint14_linear_63_157)"/>
</mask>
<g mask="url(#mask7_63_157)">
<path d="M66.8067 53.2874C63.9192 53.2784 61.5711 55.6049 61.5622 58.4836C61.5533 61.3624 63.8868 63.7033 66.7744 63.7123C69.6619 63.7213 72.01 61.3948 72.0189 58.5161C72.0278 55.6373 69.6943 53.2963 66.8067 53.2874Z" fill="url(#paint15_linear_63_157)"/>
</g>
<mask id="mask8_63_157" style="mask-type:alpha" maskUnits="userSpaceOnUse" x="31" y="53" width="11" height="11">
<path d="M36.5258 53.1934C33.6382 53.1844 31.2902 55.5109 31.2812 58.3896C31.2723 61.2684 33.6059 63.6093 36.4934 63.6183C39.381 63.6273 41.729 61.3008 41.738 58.4221C41.7469 55.5433 39.4133 53.2024 36.5258 53.1934Z" fill="url(#paint16_linear_63_157)"/>
</mask>
<g mask="url(#mask8_63_157)">
<path d="M36.5258 53.1934C33.6382 53.1844 31.2902 55.5109 31.2812 58.3896C31.2723 61.2684 33.6059 63.6093 36.4934 63.6183C39.381 63.6273 41.729 61.3008 41.738 58.4221C41.7469 55.5433 39.4133 53.2024 36.5258 53.1934Z" fill="url(#paint17_linear_63_157)"/>
</g>
<mask id="mask9_63_157" style="mask-type:alpha" maskUnits="userSpaceOnUse" x="1" y="53" width="11" height="11">
<path d="M6.24484 53.0994C3.35729 53.0904 1.00923 55.4169 1.0003 58.2956C0.991369 61.1744 3.32495 63.5153 6.2125 63.5243C9.10005 63.5333 11.4481 61.2068 11.457 58.3281C11.466 55.4493 9.13239 53.1084 6.24484 53.0994Z" fill="url(#paint18_linear_63_157)"/>
</mask>
<g mask="url(#mask9_63_157)">
<path d="M6.24484 53.0994C3.35729 53.0904 1.00923 55.4169 1.0003 58.2956C0.991369 61.1744 3.32495 63.5153 6.2125 63.5243C9.10005 63.5333 11.4481 61.2068 11.457 58.3281C11.466 55.4493 9.13239 53.1084 6.24484 53.0994Z" fill="url(#paint19_linear_63_157)"/>
</g>
<mask id="mask10_63_157" style="mask-type:alpha" maskUnits="userSpaceOnUse" x="122" y="27" width="11" height="11">
<path d="M127.45 27.3045C124.562 27.2955 122.214 29.622 122.205 32.5007C122.196 35.3795 124.53 37.7204 127.417 37.7294C130.305 37.7383 132.653 35.4119 132.662 32.5332C132.671 29.6544 130.337 27.3134 127.45 27.3045Z" fill="url(#paint20_linear_63_157)"/>
</mask>
<g mask="url(#mask10_63_157)">
<path d="M127.45 27.3045C124.562 27.2955 122.214 29.622 122.205 32.5007C122.196 35.3795 124.53 37.7204 127.417 37.7294C130.305 37.7383 132.653 35.4119 132.662 32.5332C132.671 29.6544 130.337 27.3134 127.45 27.3045Z" fill="url(#paint21_linear_63_157)"/>
</g>
<mask id="mask11_63_157" style="mask-type:alpha" maskUnits="userSpaceOnUse" x="91" y="27" width="12" height="11">
<path d="M97.1688 27.2105C94.2813 27.2015 91.9332 29.528 91.9243 32.4068C91.9153 35.2855 94.2489 37.6264 97.1365 37.6354C100.024 37.6443 102.372 35.3179 102.381 32.4392C102.39 29.5604 100.056 27.2194 97.1688 27.2105Z" fill="url(#paint22_linear_63_157)"/>
</mask>
<g mask="url(#mask11_63_157)">
<path d="M97.1688 27.2105C94.2813 27.2015 91.9332 29.528 91.9243 32.4068C91.9153 35.2855 94.2489 37.6264 97.1365 37.6354C100.024 37.6443 102.372 35.3179 102.381 32.4392C102.39 29.5604 100.056 27.2194 97.1688 27.2105Z" fill="url(#paint23_linear_63_157)"/>
</g>
<mask id="mask12_63_157" style="mask-type:alpha" maskUnits="userSpaceOnUse" x="61" y="27" width="12" height="11">
<path d="M66.8879 27.1165C64.0004 27.1075 61.6523 29.434 61.6434 32.3128C61.6344 35.1915 63.968 37.5324 66.8556 37.5414C69.7431 37.5504 72.0912 35.2239 72.1001 32.3452C72.109 29.4664 69.7754 27.1254 66.8879 27.1165Z" fill="url(#paint24_linear_63_157)"/>
</mask>
<g mask="url(#mask12_63_157)">
<path d="M66.8879 27.1165C64.0004 27.1075 61.6523 29.434 61.6434 32.3128C61.6344 35.1915 63.968 37.5324 66.8556 37.5414C69.7431 37.5504 72.0912 35.2239 72.1001 32.3452C72.109 29.4664 69.7754 27.1254 66.8879 27.1165Z" fill="url(#paint25_linear_63_157)"/>
</g>
<mask id="mask13_63_157" style="mask-type:alpha" maskUnits="userSpaceOnUse" x="31" y="27" width="11" height="11">
<path d="M36.6069 27.0227C33.7194 27.0138 31.3714 29.3403 31.3624 32.219C31.3535 35.0978 33.6871 37.4387 36.5746 37.4476C39.4622 37.4566 41.8102 35.1302 41.8191 32.2514C41.8281 29.3727 39.4945 27.0317 36.6069 27.0227Z" fill="url(#paint26_linear_63_157)"/>
</mask>
<g mask="url(#mask13_63_157)">
<path d="M36.6069 27.0227C33.7194 27.0138 31.3714 29.3403 31.3624 32.219C31.3535 35.0978 33.6871 37.4387 36.5746 37.4476C39.4622 37.4566 41.8102 35.1302 41.8191 32.2514C41.8281 29.3727 39.4945 27.0317 36.6069 27.0227Z" fill="url(#paint27_linear_63_157)"/>
</g>
<mask id="mask14_63_157" style="mask-type:alpha" maskUnits="userSpaceOnUse" x="1" y="26" width="11" height="12">
<path d="M6.32608 26.9287C3.43853 26.9198 1.09047 29.2463 1.08154 32.125C1.07261 35.0038 3.40619 37.3447 6.29374 37.3537C9.18129 37.3626 11.5293 35.0362 11.5383 32.1575C11.5472 29.2787 9.21363 26.9377 6.32608 26.9287Z" fill="url(#paint28_linear_63_157)"/>
</mask>
<g mask="url(#mask14_63_157)">
<path d="M6.32608 26.9287C3.43853 26.9198 1.09047 29.2463 1.08154 32.125C1.07261 35.0038 3.40619 37.3447 6.29374 37.3537C9.18129 37.3626 11.5293 35.0362 11.5383 32.1575C11.5472 29.2787 9.21363 26.9377 6.32608 26.9287Z" fill="url(#paint29_linear_63_157)"/>
</g>
<mask id="mask15_63_157" style="mask-type:alpha" maskUnits="userSpaceOnUse" x="122" y="1" width="11" height="11">
<path d="M127.531 1.18802C124.643 1.17906 122.295 3.50548 122.286 6.38422C122.277 9.26297 124.611 11.604 127.498 11.6129C130.386 11.6219 132.734 9.29541 132.743 6.41666C132.752 3.53792 130.418 1.19698 127.531 1.18802Z" fill="url(#paint30_linear_63_157)"/>
</mask>
<g mask="url(#mask15_63_157)">
<path d="M127.531 1.18802C124.643 1.17906 122.295 3.50548 122.286 6.38422C122.277 9.26297 124.611 11.604 127.498 11.6129C130.386 11.6219 132.734 9.29541 132.743 6.41666C132.752 3.53792 130.418 1.19698 127.531 1.18802Z" fill="url(#paint31_linear_63_157)"/>
</g>
<mask id="mask16_63_157" style="mask-type:alpha" maskUnits="userSpaceOnUse" x="92" y="1" width="11" height="11">
<path d="M97.2498 1.09403C94.3623 1.08507 92.0142 3.41148 92.0053 6.29023C91.9964 9.16898 94.33 11.51 97.2175 11.5189C100.105 11.5279 102.453 9.20142 102.462 6.32267C102.471 3.44392 100.137 1.10299 97.2498 1.09403Z" fill="url(#paint32_linear_63_157)"/>
</mask>
<g mask="url(#mask16_63_157)">
<path d="M97.2498 1.09403C94.3623 1.08507 92.0142 3.41148 92.0053 6.29023C91.9964 9.16898 94.33 11.51 97.2175 11.5189C100.105 11.5279 102.453 9.20142 102.462 6.32267C102.471 3.44392 100.137 1.10299 97.2498 1.09403Z" fill="url(#paint33_linear_63_157)"/>
</g>
<mask id="mask17_63_157" style="mask-type:alpha" maskUnits="userSpaceOnUse" x="61" y="1" width="12" height="11">
<path d="M66.9689 1.00003C64.0814 0.991076 61.7333 3.31749 61.7244 6.19623C61.7155 9.07498 64.049 11.416 66.9366 11.4249C69.8241 11.4339 72.1722 9.10742 72.1811 6.22867C72.19 3.34993 69.8565 1.00899 66.9689 1.00003Z" fill="url(#paint34_linear_63_157)"/>
</mask>
<g mask="url(#mask17_63_157)">
<path d="M66.9689 1.00003C64.0814 0.991076 61.7333 3.31749 61.7244 6.19623C61.7155 9.07498 64.049 11.416 66.9366 11.4249C69.8241 11.4339 72.1722 9.10742 72.1811 6.22867C72.19 3.34993 69.8565 1.00899 66.9689 1.00003Z" fill="url(#paint35_linear_63_157)"/>
</g>
<mask id="mask18_63_157" style="mask-type:alpha" maskUnits="userSpaceOnUse" x="31" y="0" width="11" height="12">
<path d="M36.688 0.90604C33.8005 0.897082 31.4524 3.22349 31.4435 6.10224C31.4345 8.98099 33.7681 11.322 36.6557 11.3309C39.5432 11.3399 41.8913 9.01343 41.9002 6.13468C41.9091 3.25593 39.5756 0.914998 36.688 0.90604Z" fill="url(#paint36_linear_63_157)"/>
</mask>
<g mask="url(#mask18_63_157)">
<path d="M36.688 0.90604C33.8005 0.897082 31.4524 3.22349 31.4435 6.10224C31.4345 8.98099 33.7681 11.322 36.6557 11.3309C39.5432 11.3399 41.8913 9.01343 41.9002 6.13468C41.9091 3.25593 39.5756 0.914998 36.688 0.90604Z" fill="url(#paint37_linear_63_157)"/>
</g>
<mask id="mask19_63_157" style="mask-type:alpha" maskUnits="userSpaceOnUse" x="1" y="0" width="11" height="12">
<path d="M6.40707 0.81229C3.51953 0.803332 1.17146 3.12974 1.16253 6.00849C1.1536 8.88724 3.48718 11.2282 6.37473 11.2372C9.26228 11.2462 11.6103 8.91968 11.6193 6.04093C11.6282 3.16218 9.29462 0.821248 6.40707 0.81229Z" fill="url(#paint38_linear_63_157)"/>
</mask>
<g mask="url(#mask19_63_157)">
<path d="M6.40707 0.81229C3.51953 0.803332 1.17146 3.12974 1.16253 6.00849C1.1536 8.88724 3.48718 11.2282 6.37473 11.2372C9.26228 11.2462 11.6103 8.91968 11.6193 6.04093C11.6282 3.16218 9.29462 0.821248 6.40707 0.81229Z" fill="url(#paint39_linear_63_157)"/>
</g>
</g>
<defs>
<linearGradient id="paint0_linear_63_157" x1="77.8946" y1="-41.2698" x2="148.731" y2="140.753" gradientUnits="userSpaceOnUse">
<stop stop-color="white"/>
<stop offset="1" stop-color="white"/>
</linearGradient>
<linearGradient id="paint1_linear_63_157" x1="77.8946" y1="-41.2698" x2="148.731" y2="140.753" gradientUnits="userSpaceOnUse">
<stop stop-color="white"/>
<stop offset="1" stop-color="white"/>
</linearGradient>
<linearGradient id="paint2_linear_63_157" x1="47.6136" y1="-41.3635" x2="118.45" y2="140.66" gradientUnits="userSpaceOnUse">
<stop stop-color="white"/>
<stop offset="1" stop-color="white"/>
</linearGradient>
<linearGradient id="paint3_linear_63_157" x1="47.6136" y1="-41.3635" x2="118.45" y2="140.66" gradientUnits="userSpaceOnUse">
<stop stop-color="white"/>
<stop offset="1" stop-color="white"/>
</linearGradient>
<linearGradient id="paint4_linear_63_157" x1="17.3327" y1="-41.4575" x2="88.1688" y2="140.566" gradientUnits="userSpaceOnUse">
<stop stop-color="white"/>
<stop offset="1" stop-color="white"/>
</linearGradient>
<linearGradient id="paint5_linear_63_157" x1="17.3327" y1="-41.4575" x2="88.1688" y2="140.566" gradientUnits="userSpaceOnUse">
<stop stop-color="white"/>
<stop offset="1" stop-color="white"/>
</linearGradient>
<linearGradient id="paint6_linear_63_157" x1="-12.9482" y1="-41.5515" x2="57.8878" y2="140.472" gradientUnits="userSpaceOnUse">
<stop stop-color="white"/>
<stop offset="1" stop-color="white"/>
</linearGradient>
<linearGradient id="paint7_linear_63_157" x1="-12.9482" y1="-41.5515" x2="57.8878" y2="140.472" gradientUnits="userSpaceOnUse">
<stop stop-color="white"/>
<stop offset="1" stop-color="white"/>
</linearGradient>
<linearGradient id="paint8_linear_63_157" x1="-43.2291" y1="-41.6455" x2="27.6069" y2="140.378" gradientUnits="userSpaceOnUse">
<stop stop-color="white"/>
<stop offset="1" stop-color="white"/>
</linearGradient>
<linearGradient id="paint9_linear_63_157" x1="-43.2291" y1="-41.6455" x2="27.6069" y2="140.378" gradientUnits="userSpaceOnUse">
<stop stop-color="white"/>
<stop offset="1" stop-color="white"/>
</linearGradient>
<linearGradient id="paint10_linear_63_157" x1="77.9756" y1="-67.3875" x2="148.813" y2="114.637" gradientUnits="userSpaceOnUse">
<stop stop-color="white"/>
<stop offset="1" stop-color="white"/>
</linearGradient>
<linearGradient id="paint11_linear_63_157" x1="77.9756" y1="-67.3875" x2="148.813" y2="114.637" gradientUnits="userSpaceOnUse">
<stop stop-color="white"/>
<stop offset="1" stop-color="white"/>
</linearGradient>
<linearGradient id="paint12_linear_63_157" x1="47.6947" y1="-67.4813" x2="118.532" y2="114.543" gradientUnits="userSpaceOnUse">
<stop stop-color="white"/>
<stop offset="1" stop-color="white"/>
</linearGradient>
<linearGradient id="paint13_linear_63_157" x1="47.6947" y1="-67.4813" x2="118.532" y2="114.543" gradientUnits="userSpaceOnUse">
<stop stop-color="white"/>
<stop offset="1" stop-color="white"/>
</linearGradient>
<linearGradient id="paint14_linear_63_157" x1="17.4138" y1="-67.5753" x2="88.251" y2="114.449" gradientUnits="userSpaceOnUse">
<stop stop-color="white"/>
<stop offset="1" stop-color="white"/>
</linearGradient>
<linearGradient id="paint15_linear_63_157" x1="17.4138" y1="-67.5753" x2="88.251" y2="114.449" gradientUnits="userSpaceOnUse">
<stop stop-color="white"/>
<stop offset="1" stop-color="white"/>
</linearGradient>
<linearGradient id="paint16_linear_63_157" x1="-12.8672" y1="-67.6693" x2="57.9701" y2="114.355" gradientUnits="userSpaceOnUse">
<stop stop-color="white"/>
<stop offset="1" stop-color="white"/>
</linearGradient>
<linearGradient id="paint17_linear_63_157" x1="-12.8672" y1="-67.6693" x2="57.9701" y2="114.355" gradientUnits="userSpaceOnUse">
<stop stop-color="white"/>
<stop offset="1" stop-color="white"/>
</linearGradient>
<linearGradient id="paint18_linear_63_157" x1="-43.1481" y1="-67.7633" x2="27.6891" y2="114.261" gradientUnits="userSpaceOnUse">
<stop stop-color="white"/>
<stop offset="1" stop-color="white"/>
</linearGradient>
<linearGradient id="paint19_linear_63_157" x1="-43.1481" y1="-67.7633" x2="27.6891" y2="114.261" gradientUnits="userSpaceOnUse">
<stop stop-color="white"/>
<stop offset="1" stop-color="white"/>
</linearGradient>
<linearGradient id="paint20_linear_63_157" x1="78.0568" y1="-93.5582" x2="148.894" y2="88.4662" gradientUnits="userSpaceOnUse">
<stop stop-color="white"/>
<stop offset="1" stop-color="white"/>
</linearGradient>
<linearGradient id="paint21_linear_63_157" x1="78.0568" y1="-93.5582" x2="148.894" y2="88.4662" gradientUnits="userSpaceOnUse">
<stop stop-color="white"/>
<stop offset="1" stop-color="white"/>
</linearGradient>
<linearGradient id="paint22_linear_63_157" x1="47.7759" y1="-93.6522" x2="118.613" y2="88.3723" gradientUnits="userSpaceOnUse">
<stop stop-color="white"/>
<stop offset="1" stop-color="white"/>
</linearGradient>
<linearGradient id="paint23_linear_63_157" x1="47.7759" y1="-93.6522" x2="118.613" y2="88.3723" gradientUnits="userSpaceOnUse">
<stop stop-color="white"/>
<stop offset="1" stop-color="white"/>
</linearGradient>
<linearGradient id="paint24_linear_63_157" x1="17.4949" y1="-93.7462" x2="88.3322" y2="88.2783" gradientUnits="userSpaceOnUse">
<stop stop-color="white"/>
<stop offset="1" stop-color="white"/>
</linearGradient>
<linearGradient id="paint25_linear_63_157" x1="17.4949" y1="-93.7462" x2="88.3322" y2="88.2783" gradientUnits="userSpaceOnUse">
<stop stop-color="white"/>
<stop offset="1" stop-color="white"/>
</linearGradient>
<linearGradient id="paint26_linear_63_157" x1="-12.786" y1="-93.8399" x2="58.0513" y2="88.1846" gradientUnits="userSpaceOnUse">
<stop stop-color="white"/>
<stop offset="1" stop-color="white"/>
</linearGradient>
<linearGradient id="paint27_linear_63_157" x1="-12.786" y1="-93.8399" x2="58.0513" y2="88.1846" gradientUnits="userSpaceOnUse">
<stop stop-color="white"/>
<stop offset="1" stop-color="white"/>
</linearGradient>
<linearGradient id="paint28_linear_63_157" x1="-43.0669" y1="-93.9339" x2="27.7704" y2="88.0906" gradientUnits="userSpaceOnUse">
<stop stop-color="white"/>
<stop offset="1" stop-color="white"/>
</linearGradient>
<linearGradient id="paint29_linear_63_157" x1="-43.0669" y1="-93.9339" x2="27.7704" y2="88.0906" gradientUnits="userSpaceOnUse">
<stop stop-color="white"/>
<stop offset="1" stop-color="white"/>
</linearGradient>
<linearGradient id="paint30_linear_63_157" x1="78.1379" y1="-119.675" x2="148.975" y2="62.3498" gradientUnits="userSpaceOnUse">
<stop stop-color="white"/>
<stop offset="1" stop-color="white"/>
</linearGradient>
<linearGradient id="paint31_linear_63_157" x1="78.1379" y1="-119.675" x2="148.975" y2="62.3498" gradientUnits="userSpaceOnUse">
<stop stop-color="white"/>
<stop offset="1" stop-color="white"/>
</linearGradient>
<linearGradient id="paint32_linear_63_157" x1="47.8569" y1="-119.769" x2="118.694" y2="62.2558" gradientUnits="userSpaceOnUse">
<stop stop-color="white"/>
<stop offset="1" stop-color="white"/>
</linearGradient>
<linearGradient id="paint33_linear_63_157" x1="47.8569" y1="-119.769" x2="118.694" y2="62.2558" gradientUnits="userSpaceOnUse">
<stop stop-color="white"/>
<stop offset="1" stop-color="white"/>
</linearGradient>
<linearGradient id="paint34_linear_63_157" x1="17.576" y1="-119.863" x2="88.4132" y2="62.1619" gradientUnits="userSpaceOnUse">
<stop stop-color="white"/>
<stop offset="1" stop-color="white"/>
</linearGradient>
<linearGradient id="paint35_linear_63_157" x1="17.576" y1="-119.863" x2="88.4132" y2="62.1619" gradientUnits="userSpaceOnUse">
<stop stop-color="white"/>
<stop offset="1" stop-color="white"/>
</linearGradient>
<linearGradient id="paint36_linear_63_157" x1="-12.705" y1="-119.957" x2="58.1323" y2="62.0679" gradientUnits="userSpaceOnUse">
<stop stop-color="white"/>
<stop offset="1" stop-color="white"/>
</linearGradient>
<linearGradient id="paint37_linear_63_157" x1="-12.705" y1="-119.957" x2="58.1323" y2="62.0679" gradientUnits="userSpaceOnUse">
<stop stop-color="white"/>
<stop offset="1" stop-color="white"/>
</linearGradient>
<linearGradient id="paint38_linear_63_157" x1="-42.9859" y1="-120.05" x2="27.8514" y2="61.9741" gradientUnits="userSpaceOnUse">
<stop stop-color="white"/>
<stop offset="1" stop-color="white"/>
</linearGradient>
<linearGradient id="paint39_linear_63_157" x1="-42.9859" y1="-120.05" x2="27.8514" y2="61.9741" gradientUnits="userSpaceOnUse">
<stop stop-color="white"/>
<stop offset="1" stop-color="white"/>
</linearGradient>
</defs>
</svg>
