<svg width="1600" height="261" viewBox="0 0 1600 261" fill="none" xmlns="http://www.w3.org/2000/svg">
<g opacity="0.3">
<mask id="mask0_0_1" style="mask-type:alpha" maskUnits="userSpaceOnUse" x="1377" y="0" width="11" height="11">
<path d="M1382.23 10.425C1385.12 10.425 1387.46 8.09121 1387.46 5.21245C1387.46 2.33368 1385.12 0 1382.23 0C1379.34 0 1377 2.33368 1377 5.21245C1377 8.09121 1379.34 10.425 1382.23 10.425Z" fill="url(#paint0_linear_0_1)"/>
</mask>
<g mask="url(#mask0_0_1)">
<path d="M1382.23 10.425C1385.12 10.425 1387.46 8.09121 1387.46 5.21245C1387.46 2.33368 1385.12 0 1382.23 0C1379.34 0 1377 2.33368 1377 5.21245C1377 8.09121 1379.34 10.425 1382.23 10.425Z" fill="url(#paint1_linear_0_1)"/>
</g>
<mask id="mask1_0_1" style="mask-type:alpha" maskUnits="userSpaceOnUse" x="1407" y="0" width="11" height="11">
<path d="M1412.51 10.425C1415.4 10.425 1417.74 8.09121 1417.74 5.21245C1417.74 2.33368 1415.4 0 1412.51 0C1409.62 0 1407.28 2.33368 1407.28 5.21245C1407.28 8.09121 1409.62 10.425 1412.51 10.425Z" fill="url(#paint2_linear_0_1)"/>
</mask>
<g mask="url(#mask1_0_1)">
<path d="M1412.51 10.425C1415.4 10.425 1417.74 8.09121 1417.74 5.21245C1417.74 2.33368 1415.4 0 1412.51 0C1409.62 0 1407.28 2.33368 1407.28 5.21245C1407.28 8.09121 1409.62 10.425 1412.51 10.425Z" fill="url(#paint3_linear_0_1)"/>
</g>
<mask id="mask2_0_1" style="mask-type:alpha" maskUnits="userSpaceOnUse" x="1437" y="0" width="12" height="11">
<path d="M1442.79 10.425C1445.68 10.425 1448.02 8.09121 1448.02 5.21245C1448.02 2.33368 1445.68 0 1442.79 0C1439.9 0 1437.56 2.33368 1437.56 5.21245C1437.56 8.09121 1439.9 10.425 1442.79 10.425Z" fill="url(#paint4_linear_0_1)"/>
</mask>
<g mask="url(#mask2_0_1)">
<path d="M1442.79 10.425C1445.68 10.425 1448.02 8.09121 1448.02 5.21245C1448.02 2.33368 1445.68 0 1442.79 0C1439.9 0 1437.56 2.33368 1437.56 5.21245C1437.56 8.09121 1439.9 10.425 1442.79 10.425Z" fill="url(#paint5_linear_0_1)"/>
</g>
<mask id="mask3_0_1" style="mask-type:alpha" maskUnits="userSpaceOnUse" x="1467" y="0" width="12" height="11">
<path d="M1473.07 10.425C1475.96 10.425 1478.3 8.09121 1478.3 5.21245C1478.3 2.33368 1475.96 0 1473.07 0C1470.18 0 1467.84 2.33368 1467.84 5.21245C1467.84 8.09121 1470.18 10.425 1473.07 10.425Z" fill="url(#paint6_linear_0_1)"/>
</mask>
<g mask="url(#mask3_0_1)">
<path d="M1473.07 10.425C1475.96 10.425 1478.3 8.09121 1478.3 5.21245C1478.3 2.33368 1475.96 0 1473.07 0C1470.18 0 1467.84 2.33368 1467.84 5.21245C1467.84 8.09121 1470.18 10.425 1473.07 10.425Z" fill="url(#paint7_linear_0_1)"/>
</g>
<mask id="mask4_0_1" style="mask-type:alpha" maskUnits="userSpaceOnUse" x="1498" y="0" width="11" height="11">
<path d="M1503.35 10.425C1506.24 10.425 1508.58 8.09121 1508.58 5.21245C1508.58 2.33368 1506.24 0 1503.35 0C1500.47 0 1498.12 2.33368 1498.12 5.21245C1498.12 8.09121 1500.47 10.425 1503.35 10.425Z" fill="url(#paint8_linear_0_1)"/>
</mask>
<g mask="url(#mask4_0_1)">
<path d="M1503.35 10.425C1506.24 10.425 1508.58 8.09121 1508.58 5.21245C1508.58 2.33368 1506.24 0 1503.35 0C1500.47 0 1498.12 2.33368 1498.12 5.21245C1498.12 8.09121 1500.47 10.425 1503.35 10.425Z" fill="url(#paint9_linear_0_1)"/>
</g>
<mask id="mask5_0_1" style="mask-type:alpha" maskUnits="userSpaceOnUse" x="1377" y="26" width="11" height="11">
<path d="M1382.23 36.5958C1385.12 36.5958 1387.46 34.2621 1387.46 31.3833C1387.46 28.5046 1385.12 26.1709 1382.23 26.1709C1379.34 26.1709 1377 28.5046 1377 31.3833C1377 34.2621 1379.34 36.5958 1382.23 36.5958Z" fill="url(#paint10_linear_0_1)"/>
</mask>
<g mask="url(#mask5_0_1)">
<path d="M1382.23 36.5958C1385.12 36.5958 1387.46 34.2621 1387.46 31.3833C1387.46 28.5046 1385.12 26.1709 1382.23 26.1709C1379.34 26.1709 1377 28.5046 1377 31.3833C1377 34.2621 1379.34 36.5958 1382.23 36.5958Z" fill="url(#paint11_linear_0_1)"/>
</g>
<mask id="mask6_0_1" style="mask-type:alpha" maskUnits="userSpaceOnUse" x="1407" y="26" width="11" height="11">
<path d="M1412.51 36.5958C1415.4 36.5958 1417.74 34.2621 1417.74 31.3833C1417.74 28.5046 1415.4 26.1709 1412.51 26.1709C1409.62 26.1709 1407.28 28.5046 1407.28 31.3833C1407.28 34.2621 1409.62 36.5958 1412.51 36.5958Z" fill="url(#paint12_linear_0_1)"/>
</mask>
<g mask="url(#mask6_0_1)">
<path d="M1412.51 36.5958C1415.4 36.5958 1417.74 34.2621 1417.74 31.3833C1417.74 28.5046 1415.4 26.1709 1412.51 26.1709C1409.62 26.1709 1407.28 28.5046 1407.28 31.3833C1407.28 34.2621 1409.62 36.5958 1412.51 36.5958Z" fill="url(#paint13_linear_0_1)"/>
</g>
<mask id="mask7_0_1" style="mask-type:alpha" maskUnits="userSpaceOnUse" x="1437" y="26" width="12" height="11">
<path d="M1442.79 36.5958C1445.68 36.5958 1448.02 34.2621 1448.02 31.3833C1448.02 28.5046 1445.68 26.1709 1442.79 26.1709C1439.9 26.1709 1437.56 28.5046 1437.56 31.3833C1437.56 34.2621 1439.9 36.5958 1442.79 36.5958Z" fill="url(#paint14_linear_0_1)"/>
</mask>
<g mask="url(#mask7_0_1)">
<path d="M1442.79 36.5958C1445.68 36.5958 1448.02 34.2621 1448.02 31.3833C1448.02 28.5046 1445.68 26.1709 1442.79 26.1709C1439.9 26.1709 1437.56 28.5046 1437.56 31.3833C1437.56 34.2621 1439.9 36.5958 1442.79 36.5958Z" fill="url(#paint15_linear_0_1)"/>
</g>
<mask id="mask8_0_1" style="mask-type:alpha" maskUnits="userSpaceOnUse" x="1467" y="26" width="12" height="11">
<path d="M1473.07 36.5958C1475.96 36.5958 1478.3 34.2621 1478.3 31.3833C1478.3 28.5046 1475.96 26.1709 1473.07 26.1709C1470.18 26.1709 1467.84 28.5046 1467.84 31.3833C1467.84 34.2621 1470.18 36.5958 1473.07 36.5958Z" fill="url(#paint16_linear_0_1)"/>
</mask>
<g mask="url(#mask8_0_1)">
<path d="M1473.07 36.5958C1475.96 36.5958 1478.3 34.2621 1478.3 31.3833C1478.3 28.5046 1475.96 26.1709 1473.07 26.1709C1470.18 26.1709 1467.84 28.5046 1467.84 31.3833C1467.84 34.2621 1470.18 36.5958 1473.07 36.5958Z" fill="url(#paint17_linear_0_1)"/>
</g>
<mask id="mask9_0_1" style="mask-type:alpha" maskUnits="userSpaceOnUse" x="1498" y="26" width="11" height="11">
<path d="M1503.35 36.5958C1506.24 36.5958 1508.58 34.2621 1508.58 31.3833C1508.58 28.5046 1506.24 26.1709 1503.35 26.1709C1500.47 26.1709 1498.12 28.5046 1498.12 31.3833C1498.12 34.2621 1500.47 36.5958 1503.35 36.5958Z" fill="url(#paint18_linear_0_1)"/>
</mask>
<g mask="url(#mask9_0_1)">
<path d="M1503.35 36.5958C1506.24 36.5958 1508.58 34.2621 1508.58 31.3833C1508.58 28.5046 1506.24 26.1709 1503.35 26.1709C1500.47 26.1709 1498.12 28.5046 1498.12 31.3833C1498.12 34.2621 1500.47 36.5958 1503.35 36.5958Z" fill="url(#paint19_linear_0_1)"/>
</g>
<mask id="mask10_0_1" style="mask-type:alpha" maskUnits="userSpaceOnUse" x="1377" y="52" width="11" height="11">
<path d="M1382.23 62.7126C1385.12 62.7126 1387.46 60.3789 1387.46 57.5001C1387.46 54.6213 1385.12 52.2876 1382.23 52.2876C1379.34 52.2876 1377 54.6213 1377 57.5001C1377 60.3789 1379.34 62.7126 1382.23 62.7126Z" fill="url(#paint20_linear_0_1)"/>
</mask>
<g mask="url(#mask10_0_1)">
<path d="M1382.23 62.7126C1385.12 62.7126 1387.46 60.3789 1387.46 57.5001C1387.46 54.6213 1385.12 52.2876 1382.23 52.2876C1379.34 52.2876 1377 54.6213 1377 57.5001C1377 60.3789 1379.34 62.7126 1382.23 62.7126Z" fill="url(#paint21_linear_0_1)"/>
</g>
<mask id="mask11_0_1" style="mask-type:alpha" maskUnits="userSpaceOnUse" x="1407" y="52" width="11" height="11">
<path d="M1412.51 62.7126C1415.4 62.7126 1417.74 60.3789 1417.74 57.5001C1417.74 54.6213 1415.4 52.2876 1412.51 52.2876C1409.62 52.2876 1407.28 54.6213 1407.28 57.5001C1407.28 60.3789 1409.62 62.7126 1412.51 62.7126Z" fill="url(#paint22_linear_0_1)"/>
</mask>
<g mask="url(#mask11_0_1)">
<path d="M1412.51 62.7126C1415.4 62.7126 1417.74 60.3789 1417.74 57.5001C1417.74 54.6213 1415.4 52.2876 1412.51 52.2876C1409.62 52.2876 1407.28 54.6213 1407.28 57.5001C1407.28 60.3789 1409.62 62.7126 1412.51 62.7126Z" fill="url(#paint23_linear_0_1)"/>
</g>
<mask id="mask12_0_1" style="mask-type:alpha" maskUnits="userSpaceOnUse" x="1437" y="52" width="12" height="11">
<path d="M1442.79 62.7126C1445.68 62.7126 1448.02 60.3789 1448.02 57.5001C1448.02 54.6213 1445.68 52.2876 1442.79 52.2876C1439.9 52.2876 1437.56 54.6213 1437.56 57.5001C1437.56 60.3789 1439.9 62.7126 1442.79 62.7126Z" fill="url(#paint24_linear_0_1)"/>
</mask>
<g mask="url(#mask12_0_1)">
<path d="M1442.79 62.7126C1445.68 62.7126 1448.02 60.3789 1448.02 57.5001C1448.02 54.6213 1445.68 52.2876 1442.79 52.2876C1439.9 52.2876 1437.56 54.6213 1437.56 57.5001C1437.56 60.3789 1439.9 62.7126 1442.79 62.7126Z" fill="url(#paint25_linear_0_1)"/>
</g>
<mask id="mask13_0_1" style="mask-type:alpha" maskUnits="userSpaceOnUse" x="1467" y="52" width="12" height="11">
<path d="M1473.07 62.7126C1475.96 62.7126 1478.3 60.3789 1478.3 57.5001C1478.3 54.6213 1475.96 52.2876 1473.07 52.2876C1470.18 52.2876 1467.84 54.6213 1467.84 57.5001C1467.84 60.3789 1470.18 62.7126 1473.07 62.7126Z" fill="url(#paint26_linear_0_1)"/>
</mask>
<g mask="url(#mask13_0_1)">
<path d="M1473.07 62.7126C1475.96 62.7126 1478.3 60.3789 1478.3 57.5001C1478.3 54.6213 1475.96 52.2876 1473.07 52.2876C1470.18 52.2876 1467.84 54.6213 1467.84 57.5001C1467.84 60.3789 1470.18 62.7126 1473.07 62.7126Z" fill="url(#paint27_linear_0_1)"/>
</g>
<mask id="mask14_0_1" style="mask-type:alpha" maskUnits="userSpaceOnUse" x="1498" y="52" width="11" height="11">
<path d="M1503.35 62.7126C1506.24 62.7126 1508.58 60.3789 1508.58 57.5001C1508.58 54.6213 1506.24 52.2876 1503.35 52.2876C1500.47 52.2876 1498.12 54.6213 1498.12 57.5001C1498.12 60.3789 1500.47 62.7126 1503.35 62.7126Z" fill="url(#paint28_linear_0_1)"/>
</mask>
<g mask="url(#mask14_0_1)">
<path d="M1503.35 62.7126C1506.24 62.7126 1508.58 60.3789 1508.58 57.5001C1508.58 54.6213 1506.24 52.2876 1503.35 52.2876C1500.47 52.2876 1498.12 54.6213 1498.12 57.5001C1498.12 60.3789 1500.47 62.7126 1503.35 62.7126Z" fill="url(#paint29_linear_0_1)"/>
</g>
<mask id="mask15_0_1" style="mask-type:alpha" maskUnits="userSpaceOnUse" x="1377" y="78" width="11" height="11">
<path d="M1382.23 88.8835C1385.12 88.8835 1387.46 86.5497 1387.46 83.6709C1387.46 80.7922 1385.12 78.4585 1382.23 78.4585C1379.34 78.4585 1377 80.7922 1377 83.6709C1377 86.5497 1379.34 88.8835 1382.23 88.8835Z" fill="url(#paint30_linear_0_1)"/>
</mask>
<g mask="url(#mask15_0_1)">
<path d="M1382.23 88.8835C1385.12 88.8835 1387.46 86.5497 1387.46 83.6709C1387.46 80.7922 1385.12 78.4585 1382.23 78.4585C1379.34 78.4585 1377 80.7922 1377 83.6709C1377 86.5497 1379.34 88.8835 1382.23 88.8835Z" fill="url(#paint31_linear_0_1)"/>
</g>
<mask id="mask16_0_1" style="mask-type:alpha" maskUnits="userSpaceOnUse" x="1407" y="78" width="11" height="11">
<path d="M1412.51 88.8835C1415.4 88.8835 1417.74 86.5497 1417.74 83.6709C1417.74 80.7922 1415.4 78.4585 1412.51 78.4585C1409.62 78.4585 1407.28 80.7922 1407.28 83.6709C1407.28 86.5497 1409.62 88.8835 1412.51 88.8835Z" fill="url(#paint32_linear_0_1)"/>
</mask>
<g mask="url(#mask16_0_1)">
<path d="M1412.51 88.8835C1415.4 88.8835 1417.74 86.5497 1417.74 83.6709C1417.74 80.7922 1415.4 78.4585 1412.51 78.4585C1409.62 78.4585 1407.28 80.7922 1407.28 83.6709C1407.28 86.5497 1409.62 88.8835 1412.51 88.8835Z" fill="url(#paint33_linear_0_1)"/>
</g>
<mask id="mask17_0_1" style="mask-type:alpha" maskUnits="userSpaceOnUse" x="1437" y="78" width="12" height="11">
<path d="M1442.79 88.8835C1445.68 88.8835 1448.02 86.5497 1448.02 83.6709C1448.02 80.7922 1445.68 78.4585 1442.79 78.4585C1439.9 78.4585 1437.56 80.7922 1437.56 83.6709C1437.56 86.5497 1439.9 88.8835 1442.79 88.8835Z" fill="url(#paint34_linear_0_1)"/>
</mask>
<g mask="url(#mask17_0_1)">
<path d="M1442.79 88.8835C1445.68 88.8835 1448.02 86.5497 1448.02 83.6709C1448.02 80.7922 1445.68 78.4585 1442.79 78.4585C1439.9 78.4585 1437.56 80.7922 1437.56 83.6709C1437.56 86.5497 1439.9 88.8835 1442.79 88.8835Z" fill="url(#paint35_linear_0_1)"/>
</g>
<mask id="mask18_0_1" style="mask-type:alpha" maskUnits="userSpaceOnUse" x="1467" y="78" width="12" height="11">
<path d="M1473.07 88.8835C1475.96 88.8835 1478.3 86.5497 1478.3 83.6709C1478.3 80.7922 1475.96 78.4585 1473.07 78.4585C1470.18 78.4585 1467.84 80.7922 1467.84 83.6709C1467.84 86.5497 1470.18 88.8835 1473.07 88.8835Z" fill="url(#paint36_linear_0_1)"/>
</mask>
<g mask="url(#mask18_0_1)">
<path d="M1473.07 88.8835C1475.96 88.8835 1478.3 86.5497 1478.3 83.6709C1478.3 80.7922 1475.96 78.4585 1473.07 78.4585C1470.18 78.4585 1467.84 80.7922 1467.84 83.6709C1467.84 86.5497 1470.18 88.8835 1473.07 88.8835Z" fill="url(#paint37_linear_0_1)"/>
</g>
<mask id="mask19_0_1" style="mask-type:alpha" maskUnits="userSpaceOnUse" x="1498" y="78" width="11" height="11">
<path d="M1503.35 88.8835C1506.24 88.8835 1508.58 86.5497 1508.58 83.6709C1508.58 80.7922 1506.24 78.4585 1503.35 78.4585C1500.47 78.4585 1498.12 80.7922 1498.12 83.6709C1498.12 86.5497 1500.47 88.8835 1503.35 88.8835Z" fill="url(#paint38_linear_0_1)"/>
</mask>
<g mask="url(#mask19_0_1)">
<path d="M1503.35 88.8835C1506.24 88.8835 1508.58 86.5497 1508.58 83.6709C1508.58 80.7922 1506.24 78.4585 1503.35 78.4585C1500.47 78.4585 1498.12 80.7922 1498.12 83.6709C1498.12 86.5497 1500.47 88.8835 1503.35 88.8835Z" fill="url(#paint39_linear_0_1)"/>
</g>
<mask id="mask20_0_1" style="mask-type:alpha" maskUnits="userSpaceOnUse" x="1377" y="104" width="11" height="11">
<path d="M1382.23 115C1385.12 115 1387.46 112.666 1387.46 109.787C1387.46 106.909 1385.12 104.575 1382.23 104.575C1379.34 104.575 1377 106.909 1377 109.787C1377 112.666 1379.34 115 1382.23 115Z" fill="url(#paint40_linear_0_1)"/>
</mask>
<g mask="url(#mask20_0_1)">
<path d="M1382.23 115C1385.12 115 1387.46 112.666 1387.46 109.787C1387.46 106.909 1385.12 104.575 1382.23 104.575C1379.34 104.575 1377 106.909 1377 109.787C1377 112.666 1379.34 115 1382.23 115Z" fill="url(#paint41_linear_0_1)"/>
</g>
<mask id="mask21_0_1" style="mask-type:alpha" maskUnits="userSpaceOnUse" x="1407" y="104" width="11" height="11">
<path d="M1412.51 115C1415.4 115 1417.74 112.666 1417.74 109.787C1417.74 106.909 1415.4 104.575 1412.51 104.575C1409.62 104.575 1407.28 106.909 1407.28 109.787C1407.28 112.666 1409.62 115 1412.51 115Z" fill="url(#paint42_linear_0_1)"/>
</mask>
<g mask="url(#mask21_0_1)">
<path d="M1412.51 115C1415.4 115 1417.74 112.666 1417.74 109.787C1417.74 106.909 1415.4 104.575 1412.51 104.575C1409.62 104.575 1407.28 106.909 1407.28 109.787C1407.28 112.666 1409.62 115 1412.51 115Z" fill="url(#paint43_linear_0_1)"/>
</g>
<mask id="mask22_0_1" style="mask-type:alpha" maskUnits="userSpaceOnUse" x="1437" y="104" width="12" height="11">
<path d="M1442.79 115C1445.68 115 1448.02 112.666 1448.02 109.787C1448.02 106.909 1445.68 104.575 1442.79 104.575C1439.9 104.575 1437.56 106.909 1437.56 109.787C1437.56 112.666 1439.9 115 1442.79 115Z" fill="url(#paint44_linear_0_1)"/>
</mask>
<g mask="url(#mask22_0_1)">
<path d="M1442.79 115C1445.68 115 1448.02 112.666 1448.02 109.787C1448.02 106.909 1445.68 104.575 1442.79 104.575C1439.9 104.575 1437.56 106.909 1437.56 109.787C1437.56 112.666 1439.9 115 1442.79 115Z" fill="url(#paint45_linear_0_1)"/>
</g>
<mask id="mask23_0_1" style="mask-type:alpha" maskUnits="userSpaceOnUse" x="1467" y="104" width="12" height="11">
<path d="M1473.07 115C1475.96 115 1478.3 112.666 1478.3 109.787C1478.3 106.909 1475.96 104.575 1473.07 104.575C1470.18 104.575 1467.84 106.909 1467.84 109.787C1467.84 112.666 1470.18 115 1473.07 115Z" fill="url(#paint46_linear_0_1)"/>
</mask>
<g mask="url(#mask23_0_1)">
<path d="M1473.07 115C1475.96 115 1478.3 112.666 1478.3 109.787C1478.3 106.909 1475.96 104.575 1473.07 104.575C1470.18 104.575 1467.84 106.909 1467.84 109.787C1467.84 112.666 1470.18 115 1473.07 115Z" fill="url(#paint47_linear_0_1)"/>
</g>
<mask id="mask24_0_1" style="mask-type:alpha" maskUnits="userSpaceOnUse" x="1498" y="104" width="11" height="11">
<path d="M1503.35 115C1506.24 115 1508.58 112.666 1508.58 109.787C1508.58 106.909 1506.24 104.575 1503.35 104.575C1500.47 104.575 1498.12 106.909 1498.12 109.787C1498.12 112.666 1500.47 115 1503.35 115Z" fill="url(#paint48_linear_0_1)"/>
</mask>
<g mask="url(#mask24_0_1)">
<path d="M1503.35 115C1506.24 115 1508.58 112.666 1508.58 109.787C1508.58 106.909 1506.24 104.575 1503.35 104.575C1500.47 104.575 1498.12 106.909 1498.12 109.787C1498.12 112.666 1500.47 115 1503.35 115Z" fill="url(#paint49_linear_0_1)"/>
</g>
</g>
<rect y="77" width="1600" height="165" fill="url(#paint50_linear_0_1)"/>
<g opacity="0.26">
<mask id="mask25_0_1" style="mask-type:alpha" maskUnits="userSpaceOnUse" x="11" y="146" width="11" height="11">
<path d="M16.5095 156.425C19.397 156.425 21.7378 154.091 21.7378 151.212C21.7378 148.334 19.397 146 16.5095 146C13.6219 146 11.2811 148.334 11.2811 151.212C11.2811 154.091 13.6219 156.425 16.5095 156.425Z" fill="url(#paint51_linear_0_1)"/>
</mask>
<g mask="url(#mask25_0_1)">
<path d="M16.5095 156.425C19.397 156.425 21.7378 154.091 21.7378 151.212C21.7378 148.334 19.397 146 16.5095 146C13.6219 146 11.2811 148.334 11.2811 151.212C11.2811 154.091 13.6219 156.425 16.5095 156.425Z" fill="url(#paint52_linear_0_1)"/>
</g>
<mask id="mask26_0_1" style="mask-type:alpha" maskUnits="userSpaceOnUse" x="41" y="146" width="12" height="11">
<path d="M46.7905 156.425C49.6781 156.425 52.0189 154.091 52.0189 151.212C52.0189 148.334 49.6781 146 46.7905 146C43.903 146 41.5621 148.334 41.5621 151.212C41.5621 154.091 43.903 156.425 46.7905 156.425Z" fill="url(#paint53_linear_0_1)"/>
</mask>
<g mask="url(#mask26_0_1)">
<path d="M46.7905 156.425C49.6781 156.425 52.0189 154.091 52.0189 151.212C52.0189 148.334 49.6781 146 46.7905 146C43.903 146 41.5621 148.334 41.5621 151.212C41.5621 154.091 43.903 156.425 46.7905 156.425Z" fill="url(#paint54_linear_0_1)"/>
</g>
<mask id="mask27_0_1" style="mask-type:alpha" maskUnits="userSpaceOnUse" x="71" y="146" width="12" height="11">
<path d="M77.0716 156.425C79.9592 156.425 82.3 154.091 82.3 151.212C82.3 148.334 79.9592 146 77.0716 146C74.184 146 71.8432 148.334 71.8432 151.212C71.8432 154.091 74.184 156.425 77.0716 156.425Z" fill="url(#paint55_linear_0_1)"/>
</mask>
<g mask="url(#mask27_0_1)">
<path d="M77.0716 156.425C79.9592 156.425 82.3 154.091 82.3 151.212C82.3 148.334 79.9592 146 77.0716 146C74.184 146 71.8432 148.334 71.8432 151.212C71.8432 154.091 74.184 156.425 77.0716 156.425Z" fill="url(#paint56_linear_0_1)"/>
</g>
<mask id="mask28_0_1" style="mask-type:alpha" maskUnits="userSpaceOnUse" x="102" y="146" width="11" height="11">
<path d="M107.353 156.425C110.24 156.425 112.581 154.091 112.581 151.212C112.581 148.334 110.24 146 107.353 146C104.465 146 102.124 148.334 102.124 151.212C102.124 154.091 104.465 156.425 107.353 156.425Z" fill="url(#paint57_linear_0_1)"/>
</mask>
<g mask="url(#mask28_0_1)">
<path d="M107.353 156.425C110.24 156.425 112.581 154.091 112.581 151.212C112.581 148.334 110.24 146 107.353 146C104.465 146 102.124 148.334 102.124 151.212C102.124 154.091 104.465 156.425 107.353 156.425Z" fill="url(#paint58_linear_0_1)"/>
</g>
<mask id="mask29_0_1" style="mask-type:alpha" maskUnits="userSpaceOnUse" x="11" y="172" width="11" height="11">
<path d="M16.5095 182.596C19.397 182.596 21.7378 180.262 21.7378 177.383C21.7378 174.505 19.397 172.171 16.5095 172.171C13.6219 172.171 11.2811 174.505 11.2811 177.383C11.2811 180.262 13.6219 182.596 16.5095 182.596Z" fill="url(#paint59_linear_0_1)"/>
</mask>
<g mask="url(#mask29_0_1)">
<path d="M16.5095 182.596C19.397 182.596 21.7378 180.262 21.7378 177.383C21.7378 174.505 19.397 172.171 16.5095 172.171C13.6219 172.171 11.2811 174.505 11.2811 177.383C11.2811 180.262 13.6219 182.596 16.5095 182.596Z" fill="url(#paint60_linear_0_1)"/>
</g>
<mask id="mask30_0_1" style="mask-type:alpha" maskUnits="userSpaceOnUse" x="41" y="172" width="12" height="11">
<path d="M46.7905 182.596C49.6781 182.596 52.0189 180.262 52.0189 177.383C52.0189 174.505 49.6781 172.171 46.7905 172.171C43.903 172.171 41.5621 174.505 41.5621 177.383C41.5621 180.262 43.903 182.596 46.7905 182.596Z" fill="url(#paint61_linear_0_1)"/>
</mask>
<g mask="url(#mask30_0_1)">
<path d="M46.7905 182.596C49.6781 182.596 52.0189 180.262 52.0189 177.383C52.0189 174.505 49.6781 172.171 46.7905 172.171C43.903 172.171 41.5621 174.505 41.5621 177.383C41.5621 180.262 43.903 182.596 46.7905 182.596Z" fill="url(#paint62_linear_0_1)"/>
</g>
<mask id="mask31_0_1" style="mask-type:alpha" maskUnits="userSpaceOnUse" x="71" y="172" width="12" height="11">
<path d="M77.0716 182.596C79.9592 182.596 82.3 180.262 82.3 177.383C82.3 174.505 79.9592 172.171 77.0716 172.171C74.184 172.171 71.8432 174.505 71.8432 177.383C71.8432 180.262 74.184 182.596 77.0716 182.596Z" fill="url(#paint63_linear_0_1)"/>
</mask>
<g mask="url(#mask31_0_1)">
<path d="M77.0716 182.596C79.9592 182.596 82.3 180.262 82.3 177.383C82.3 174.505 79.9592 172.171 77.0716 172.171C74.184 172.171 71.8432 174.505 71.8432 177.383C71.8432 180.262 74.184 182.596 77.0716 182.596Z" fill="url(#paint64_linear_0_1)"/>
</g>
<mask id="mask32_0_1" style="mask-type:alpha" maskUnits="userSpaceOnUse" x="102" y="172" width="11" height="11">
<path d="M107.353 182.596C110.24 182.596 112.581 180.262 112.581 177.383C112.581 174.505 110.24 172.171 107.353 172.171C104.465 172.171 102.124 174.505 102.124 177.383C102.124 180.262 104.465 182.596 107.353 182.596Z" fill="url(#paint65_linear_0_1)"/>
</mask>
<g mask="url(#mask32_0_1)">
<path d="M107.353 182.596C110.24 182.596 112.581 180.262 112.581 177.383C112.581 174.505 110.24 172.171 107.353 172.171C104.465 172.171 102.124 174.505 102.124 177.383C102.124 180.262 104.465 182.596 107.353 182.596Z" fill="url(#paint66_linear_0_1)"/>
</g>
<mask id="mask33_0_1" style="mask-type:alpha" maskUnits="userSpaceOnUse" x="11" y="198" width="11" height="11">
<path d="M16.5095 208.713C19.397 208.713 21.7378 206.379 21.7378 203.5C21.7378 200.621 19.397 198.288 16.5095 198.288C13.6219 198.288 11.2811 200.621 11.2811 203.5C11.2811 206.379 13.6219 208.713 16.5095 208.713Z" fill="url(#paint67_linear_0_1)"/>
</mask>
<g mask="url(#mask33_0_1)">
<path d="M16.5095 208.713C19.397 208.713 21.7378 206.379 21.7378 203.5C21.7378 200.621 19.397 198.288 16.5095 198.288C13.6219 198.288 11.2811 200.621 11.2811 203.5C11.2811 206.379 13.6219 208.713 16.5095 208.713Z" fill="url(#paint68_linear_0_1)"/>
</g>
<mask id="mask34_0_1" style="mask-type:alpha" maskUnits="userSpaceOnUse" x="41" y="198" width="12" height="11">
<path d="M46.7905 208.713C49.6781 208.713 52.0189 206.379 52.0189 203.5C52.0189 200.621 49.6781 198.288 46.7905 198.288C43.903 198.288 41.5621 200.621 41.5621 203.5C41.5621 206.379 43.903 208.713 46.7905 208.713Z" fill="url(#paint69_linear_0_1)"/>
</mask>
<g mask="url(#mask34_0_1)">
<path d="M46.7905 208.713C49.6781 208.713 52.0189 206.379 52.0189 203.5C52.0189 200.621 49.6781 198.288 46.7905 198.288C43.903 198.288 41.5621 200.621 41.5621 203.5C41.5621 206.379 43.903 208.713 46.7905 208.713Z" fill="url(#paint70_linear_0_1)"/>
</g>
<mask id="mask35_0_1" style="mask-type:alpha" maskUnits="userSpaceOnUse" x="71" y="198" width="12" height="11">
<path d="M77.0716 208.713C79.9592 208.713 82.3 206.379 82.3 203.5C82.3 200.621 79.9592 198.288 77.0716 198.288C74.184 198.288 71.8432 200.621 71.8432 203.5C71.8432 206.379 74.184 208.713 77.0716 208.713Z" fill="url(#paint71_linear_0_1)"/>
</mask>
<g mask="url(#mask35_0_1)">
<path d="M77.0716 208.713C79.9592 208.713 82.3 206.379 82.3 203.5C82.3 200.621 79.9592 198.288 77.0716 198.288C74.184 198.288 71.8432 200.621 71.8432 203.5C71.8432 206.379 74.184 208.713 77.0716 208.713Z" fill="url(#paint72_linear_0_1)"/>
</g>
<mask id="mask36_0_1" style="mask-type:alpha" maskUnits="userSpaceOnUse" x="102" y="198" width="11" height="11">
<path d="M107.353 208.713C110.24 208.713 112.581 206.379 112.581 203.5C112.581 200.621 110.24 198.288 107.353 198.288C104.465 198.288 102.124 200.621 102.124 203.5C102.124 206.379 104.465 208.713 107.353 208.713Z" fill="url(#paint73_linear_0_1)"/>
</mask>
<g mask="url(#mask36_0_1)">
<path d="M107.353 208.713C110.24 208.713 112.581 206.379 112.581 203.5C112.581 200.621 110.24 198.288 107.353 198.288C104.465 198.288 102.124 200.621 102.124 203.5C102.124 206.379 104.465 208.713 107.353 208.713Z" fill="url(#paint74_linear_0_1)"/>
</g>
<mask id="mask37_0_1" style="mask-type:alpha" maskUnits="userSpaceOnUse" x="11" y="224" width="11" height="11">
<path d="M16.5095 234.883C19.397 234.883 21.7378 232.55 21.7378 229.671C21.7378 226.792 19.397 224.458 16.5095 224.458C13.6219 224.458 11.2811 226.792 11.2811 229.671C11.2811 232.55 13.6219 234.883 16.5095 234.883Z" fill="url(#paint75_linear_0_1)"/>
</mask>
<g mask="url(#mask37_0_1)">
<path d="M16.5095 234.883C19.397 234.883 21.7378 232.55 21.7378 229.671C21.7378 226.792 19.397 224.458 16.5095 224.458C13.6219 224.458 11.2811 226.792 11.2811 229.671C11.2811 232.55 13.6219 234.883 16.5095 234.883Z" fill="url(#paint76_linear_0_1)"/>
</g>
<mask id="mask38_0_1" style="mask-type:alpha" maskUnits="userSpaceOnUse" x="41" y="224" width="12" height="11">
<path d="M46.7905 234.883C49.6781 234.883 52.0189 232.55 52.0189 229.671C52.0189 226.792 49.6781 224.458 46.7905 224.458C43.903 224.458 41.5621 226.792 41.5621 229.671C41.5621 232.55 43.903 234.883 46.7905 234.883Z" fill="url(#paint77_linear_0_1)"/>
</mask>
<g mask="url(#mask38_0_1)">
<path d="M46.7905 234.883C49.6781 234.883 52.0189 232.55 52.0189 229.671C52.0189 226.792 49.6781 224.458 46.7905 224.458C43.903 224.458 41.5621 226.792 41.5621 229.671C41.5621 232.55 43.903 234.883 46.7905 234.883Z" fill="url(#paint78_linear_0_1)"/>
</g>
<mask id="mask39_0_1" style="mask-type:alpha" maskUnits="userSpaceOnUse" x="71" y="224" width="12" height="11">
<path d="M77.0716 234.883C79.9592 234.883 82.3 232.55 82.3 229.671C82.3 226.792 79.9592 224.458 77.0716 224.458C74.184 224.458 71.8432 226.792 71.8432 229.671C71.8432 232.55 74.184 234.883 77.0716 234.883Z" fill="url(#paint79_linear_0_1)"/>
</mask>
<g mask="url(#mask39_0_1)">
<path d="M77.0716 234.883C79.9592 234.883 82.3 232.55 82.3 229.671C82.3 226.792 79.9592 224.458 77.0716 224.458C74.184 224.458 71.8432 226.792 71.8432 229.671C71.8432 232.55 74.184 234.883 77.0716 234.883Z" fill="url(#paint80_linear_0_1)"/>
</g>
<mask id="mask40_0_1" style="mask-type:alpha" maskUnits="userSpaceOnUse" x="102" y="224" width="11" height="11">
<path d="M107.353 234.883C110.24 234.883 112.581 232.55 112.581 229.671C112.581 226.792 110.24 224.458 107.353 224.458C104.465 224.458 102.124 226.792 102.124 229.671C102.124 232.55 104.465 234.883 107.353 234.883Z" fill="url(#paint81_linear_0_1)"/>
</mask>
<g mask="url(#mask40_0_1)">
<path d="M107.353 234.883C110.24 234.883 112.581 232.55 112.581 229.671C112.581 226.792 110.24 224.458 107.353 224.458C104.465 224.458 102.124 226.792 102.124 229.671C102.124 232.55 104.465 234.883 107.353 234.883Z" fill="url(#paint82_linear_0_1)"/>
</g>
<mask id="mask41_0_1" style="mask-type:alpha" maskUnits="userSpaceOnUse" x="11" y="250" width="11" height="11">
<path d="M16.5095 261C19.397 261 21.7378 258.666 21.7378 255.787C21.7378 252.909 19.397 250.575 16.5095 250.575C13.6219 250.575 11.2811 252.909 11.2811 255.787C11.2811 258.666 13.6219 261 16.5095 261Z" fill="url(#paint83_linear_0_1)"/>
</mask>
<g mask="url(#mask41_0_1)">
<path d="M16.5095 261C19.397 261 21.7378 258.666 21.7378 255.787C21.7378 252.909 19.397 250.575 16.5095 250.575C13.6219 250.575 11.2811 252.909 11.2811 255.787C11.2811 258.666 13.6219 261 16.5095 261Z" fill="url(#paint84_linear_0_1)"/>
</g>
<mask id="mask42_0_1" style="mask-type:alpha" maskUnits="userSpaceOnUse" x="41" y="250" width="12" height="11">
<path d="M46.7905 261C49.6781 261 52.0189 258.666 52.0189 255.787C52.0189 252.909 49.6781 250.575 46.7905 250.575C43.903 250.575 41.5621 252.909 41.5621 255.787C41.5621 258.666 43.903 261 46.7905 261Z" fill="url(#paint85_linear_0_1)"/>
</mask>
<g mask="url(#mask42_0_1)">
<path d="M46.7905 261C49.6781 261 52.0189 258.666 52.0189 255.787C52.0189 252.909 49.6781 250.575 46.7905 250.575C43.903 250.575 41.5621 252.909 41.5621 255.787C41.5621 258.666 43.903 261 46.7905 261Z" fill="url(#paint86_linear_0_1)"/>
</g>
<mask id="mask43_0_1" style="mask-type:alpha" maskUnits="userSpaceOnUse" x="71" y="250" width="12" height="11">
<path d="M77.0716 261C79.9592 261 82.3 258.666 82.3 255.787C82.3 252.909 79.9592 250.575 77.0716 250.575C74.184 250.575 71.8432 252.909 71.8432 255.787C71.8432 258.666 74.184 261 77.0716 261Z" fill="url(#paint87_linear_0_1)"/>
</mask>
<g mask="url(#mask43_0_1)">
<path d="M77.0716 261C79.9592 261 82.3 258.666 82.3 255.787C82.3 252.909 79.9592 250.575 77.0716 250.575C74.184 250.575 71.8432 252.909 71.8432 255.787C71.8432 258.666 74.184 261 77.0716 261Z" fill="url(#paint88_linear_0_1)"/>
</g>
<mask id="mask44_0_1" style="mask-type:alpha" maskUnits="userSpaceOnUse" x="102" y="250" width="11" height="11">
<path d="M107.353 261C110.24 261 112.581 258.666 112.581 255.787C112.581 252.909 110.24 250.575 107.353 250.575C104.465 250.575 102.124 252.909 102.124 255.787C102.124 258.666 104.465 261 107.353 261Z" fill="url(#paint89_linear_0_1)"/>
</mask>
<g mask="url(#mask44_0_1)">
<path d="M107.353 261C110.24 261 112.581 258.666 112.581 255.787C112.581 252.909 110.24 250.575 107.353 250.575C104.465 250.575 102.124 252.909 102.124 255.787C102.124 258.666 104.465 261 107.353 261Z" fill="url(#paint90_linear_0_1)"/>
</g>
</g>
<defs>
<linearGradient id="paint0_linear_0_1" x1="1432" y1="131.134" x2="1360.59" y2="-50.67" gradientUnits="userSpaceOnUse">
<stop/>
<stop offset="1" stop-color="white"/>
</linearGradient>
<linearGradient id="paint1_linear_0_1" x1="1432" y1="131.134" x2="1360.59" y2="-50.67" gradientUnits="userSpaceOnUse">
<stop stop-color="#97C3F9"/>
<stop offset="1" stop-color="#93C1F9"/>
</linearGradient>
<linearGradient id="paint2_linear_0_1" x1="1458.2" y1="120.843" x2="1386.8" y2="-60.9613" gradientUnits="userSpaceOnUse">
<stop/>
<stop offset="1" stop-color="white"/>
</linearGradient>
<linearGradient id="paint3_linear_0_1" x1="1458.2" y1="120.843" x2="1386.8" y2="-60.9613" gradientUnits="userSpaceOnUse">
<stop stop-color="#97C3F9"/>
<stop offset="1" stop-color="#93C1F9"/>
</linearGradient>
<linearGradient id="paint4_linear_0_1" x1="1484.4" y1="110.551" x2="1413" y2="-71.2526" gradientUnits="userSpaceOnUse">
<stop/>
<stop offset="1" stop-color="white"/>
</linearGradient>
<linearGradient id="paint5_linear_0_1" x1="1484.4" y1="110.551" x2="1413" y2="-71.2526" gradientUnits="userSpaceOnUse">
<stop stop-color="#97C3F9"/>
<stop offset="1" stop-color="#93C1F9"/>
</linearGradient>
<linearGradient id="paint6_linear_0_1" x1="1510.61" y1="100.259" x2="1439.21" y2="-81.5444" gradientUnits="userSpaceOnUse">
<stop/>
<stop offset="1" stop-color="white"/>
</linearGradient>
<linearGradient id="paint7_linear_0_1" x1="1510.61" y1="100.259" x2="1439.21" y2="-81.5444" gradientUnits="userSpaceOnUse">
<stop stop-color="#97C3F9"/>
<stop offset="1" stop-color="#93C1F9"/>
</linearGradient>
<linearGradient id="paint8_linear_0_1" x1="1536.81" y1="89.9679" x2="1465.41" y2="-91.8359" gradientUnits="userSpaceOnUse">
<stop/>
<stop offset="1" stop-color="white"/>
</linearGradient>
<linearGradient id="paint9_linear_0_1" x1="1536.81" y1="89.9679" x2="1465.41" y2="-91.8359" gradientUnits="userSpaceOnUse">
<stop stop-color="#97C3F9"/>
<stop offset="1" stop-color="#93C1F9"/>
</linearGradient>
<linearGradient id="paint10_linear_0_1" x1="1423.05" y1="134.645" x2="1351.65" y2="-47.1572" gradientUnits="userSpaceOnUse">
<stop/>
<stop offset="1" stop-color="white"/>
</linearGradient>
<linearGradient id="paint11_linear_0_1" x1="1423.05" y1="134.645" x2="1351.65" y2="-47.1572" gradientUnits="userSpaceOnUse">
<stop stop-color="#97C3F9"/>
<stop offset="1" stop-color="#93C1F9"/>
</linearGradient>
<linearGradient id="paint12_linear_0_1" x1="1449.26" y1="124.354" x2="1377.86" y2="-57.4491" gradientUnits="userSpaceOnUse">
<stop/>
<stop offset="1" stop-color="white"/>
</linearGradient>
<linearGradient id="paint13_linear_0_1" x1="1449.26" y1="124.354" x2="1377.86" y2="-57.4491" gradientUnits="userSpaceOnUse">
<stop stop-color="#97C3F9"/>
<stop offset="1" stop-color="#93C1F9"/>
</linearGradient>
<linearGradient id="paint14_linear_0_1" x1="1475.46" y1="114.062" x2="1404.06" y2="-67.7404" gradientUnits="userSpaceOnUse">
<stop/>
<stop offset="1" stop-color="white"/>
</linearGradient>
<linearGradient id="paint15_linear_0_1" x1="1475.46" y1="114.062" x2="1404.06" y2="-67.7404" gradientUnits="userSpaceOnUse">
<stop stop-color="#97C3F9"/>
<stop offset="1" stop-color="#93C1F9"/>
</linearGradient>
<linearGradient id="paint16_linear_0_1" x1="1501.67" y1="103.771" x2="1430.27" y2="-78.0318" gradientUnits="userSpaceOnUse">
<stop/>
<stop offset="1" stop-color="white"/>
</linearGradient>
<linearGradient id="paint17_linear_0_1" x1="1501.67" y1="103.771" x2="1430.27" y2="-78.0318" gradientUnits="userSpaceOnUse">
<stop stop-color="#97C3F9"/>
<stop offset="1" stop-color="#93C1F9"/>
</linearGradient>
<linearGradient id="paint18_linear_0_1" x1="1527.87" y1="93.4793" x2="1456.47" y2="-88.3232" gradientUnits="userSpaceOnUse">
<stop/>
<stop offset="1" stop-color="white"/>
</linearGradient>
<linearGradient id="paint19_linear_0_1" x1="1527.87" y1="93.4793" x2="1456.47" y2="-88.3232" gradientUnits="userSpaceOnUse">
<stop stop-color="#97C3F9"/>
<stop offset="1" stop-color="#93C1F9"/>
</linearGradient>
<linearGradient id="paint20_linear_0_1" x1="1414.11" y1="138.158" x2="1342.71" y2="-43.6457" gradientUnits="userSpaceOnUse">
<stop/>
<stop offset="1" stop-color="white"/>
</linearGradient>
<linearGradient id="paint21_linear_0_1" x1="1414.11" y1="138.158" x2="1342.71" y2="-43.6457" gradientUnits="userSpaceOnUse">
<stop stop-color="#97C3F9"/>
<stop offset="1" stop-color="#93C1F9"/>
</linearGradient>
<linearGradient id="paint22_linear_0_1" x1="1440.32" y1="127.867" x2="1368.91" y2="-53.9373" gradientUnits="userSpaceOnUse">
<stop/>
<stop offset="1" stop-color="white"/>
</linearGradient>
<linearGradient id="paint23_linear_0_1" x1="1440.32" y1="127.867" x2="1368.91" y2="-53.9373" gradientUnits="userSpaceOnUse">
<stop stop-color="#97C3F9"/>
<stop offset="1" stop-color="#93C1F9"/>
</linearGradient>
<linearGradient id="paint24_linear_0_1" x1="1466.52" y1="117.575" x2="1395.12" y2="-64.2287" gradientUnits="userSpaceOnUse">
<stop/>
<stop offset="1" stop-color="white"/>
</linearGradient>
<linearGradient id="paint25_linear_0_1" x1="1466.52" y1="117.575" x2="1395.12" y2="-64.2287" gradientUnits="userSpaceOnUse">
<stop stop-color="#97C3F9"/>
<stop offset="1" stop-color="#93C1F9"/>
</linearGradient>
<linearGradient id="paint26_linear_0_1" x1="1492.72" y1="107.283" x2="1421.32" y2="-74.5204" gradientUnits="userSpaceOnUse">
<stop/>
<stop offset="1" stop-color="white"/>
</linearGradient>
<linearGradient id="paint27_linear_0_1" x1="1492.72" y1="107.283" x2="1421.32" y2="-74.5204" gradientUnits="userSpaceOnUse">
<stop stop-color="#97C3F9"/>
<stop offset="1" stop-color="#93C1F9"/>
</linearGradient>
<linearGradient id="paint28_linear_0_1" x1="1518.93" y1="96.992" x2="1447.53" y2="-84.8119" gradientUnits="userSpaceOnUse">
<stop/>
<stop offset="1" stop-color="white"/>
</linearGradient>
<linearGradient id="paint29_linear_0_1" x1="1518.93" y1="96.992" x2="1447.53" y2="-84.8119" gradientUnits="userSpaceOnUse">
<stop stop-color="#97C3F9"/>
<stop offset="1" stop-color="#93C1F9"/>
</linearGradient>
<linearGradient id="paint30_linear_0_1" x1="1405.17" y1="141.67" x2="1333.77" y2="-40.1338" gradientUnits="userSpaceOnUse">
<stop/>
<stop offset="1" stop-color="white"/>
</linearGradient>
<linearGradient id="paint31_linear_0_1" x1="1405.17" y1="141.67" x2="1333.77" y2="-40.1338" gradientUnits="userSpaceOnUse">
<stop stop-color="#97C3F9"/>
<stop offset="1" stop-color="#93C1F9"/>
</linearGradient>
<linearGradient id="paint32_linear_0_1" x1="1431.37" y1="131.379" x2="1359.97" y2="-50.4253" gradientUnits="userSpaceOnUse">
<stop/>
<stop offset="1" stop-color="white"/>
</linearGradient>
<linearGradient id="paint33_linear_0_1" x1="1431.37" y1="131.379" x2="1359.97" y2="-50.4253" gradientUnits="userSpaceOnUse">
<stop stop-color="#97C3F9"/>
<stop offset="1" stop-color="#93C1F9"/>
</linearGradient>
<linearGradient id="paint34_linear_0_1" x1="1457.58" y1="121.087" x2="1386.18" y2="-60.7167" gradientUnits="userSpaceOnUse">
<stop/>
<stop offset="1" stop-color="white"/>
</linearGradient>
<linearGradient id="paint35_linear_0_1" x1="1457.58" y1="121.087" x2="1386.18" y2="-60.7167" gradientUnits="userSpaceOnUse">
<stop stop-color="#97C3F9"/>
<stop offset="1" stop-color="#93C1F9"/>
</linearGradient>
<linearGradient id="paint36_linear_0_1" x1="1483.78" y1="110.796" x2="1412.38" y2="-71.0083" gradientUnits="userSpaceOnUse">
<stop/>
<stop offset="1" stop-color="white"/>
</linearGradient>
<linearGradient id="paint37_linear_0_1" x1="1483.78" y1="110.796" x2="1412.38" y2="-71.0083" gradientUnits="userSpaceOnUse">
<stop stop-color="#97C3F9"/>
<stop offset="1" stop-color="#93C1F9"/>
</linearGradient>
<linearGradient id="paint38_linear_0_1" x1="1509.99" y1="100.504" x2="1438.58" y2="-81.2999" gradientUnits="userSpaceOnUse">
<stop/>
<stop offset="1" stop-color="white"/>
</linearGradient>
<linearGradient id="paint39_linear_0_1" x1="1509.99" y1="100.504" x2="1438.58" y2="-81.2999" gradientUnits="userSpaceOnUse">
<stop stop-color="#97C3F9"/>
<stop offset="1" stop-color="#93C1F9"/>
</linearGradient>
<linearGradient id="paint40_linear_0_1" x1="1396.23" y1="145.182" x2="1324.82" y2="-36.622" gradientUnits="userSpaceOnUse">
<stop/>
<stop offset="1" stop-color="white"/>
</linearGradient>
<linearGradient id="paint41_linear_0_1" x1="1396.23" y1="145.182" x2="1324.82" y2="-36.622" gradientUnits="userSpaceOnUse">
<stop stop-color="#97C3F9"/>
<stop offset="1" stop-color="#93C1F9"/>
</linearGradient>
<linearGradient id="paint42_linear_0_1" x1="1422.43" y1="134.89" x2="1351.03" y2="-46.9135" gradientUnits="userSpaceOnUse">
<stop/>
<stop offset="1" stop-color="white"/>
</linearGradient>
<linearGradient id="paint43_linear_0_1" x1="1422.43" y1="134.89" x2="1351.03" y2="-46.9135" gradientUnits="userSpaceOnUse">
<stop stop-color="#97C3F9"/>
<stop offset="1" stop-color="#93C1F9"/>
</linearGradient>
<linearGradient id="paint44_linear_0_1" x1="1448.64" y1="124.599" x2="1377.23" y2="-57.2048" gradientUnits="userSpaceOnUse">
<stop/>
<stop offset="1" stop-color="white"/>
</linearGradient>
<linearGradient id="paint45_linear_0_1" x1="1448.64" y1="124.599" x2="1377.23" y2="-57.2048" gradientUnits="userSpaceOnUse">
<stop stop-color="#97C3F9"/>
<stop offset="1" stop-color="#93C1F9"/>
</linearGradient>
<linearGradient id="paint46_linear_0_1" x1="1474.84" y1="114.307" x2="1403.44" y2="-67.4964" gradientUnits="userSpaceOnUse">
<stop/>
<stop offset="1" stop-color="white"/>
</linearGradient>
<linearGradient id="paint47_linear_0_1" x1="1474.84" y1="114.307" x2="1403.44" y2="-67.4964" gradientUnits="userSpaceOnUse">
<stop stop-color="#97C3F9"/>
<stop offset="1" stop-color="#93C1F9"/>
</linearGradient>
<linearGradient id="paint48_linear_0_1" x1="1501.04" y1="104.016" x2="1429.64" y2="-77.7879" gradientUnits="userSpaceOnUse">
<stop/>
<stop offset="1" stop-color="white"/>
</linearGradient>
<linearGradient id="paint49_linear_0_1" x1="1501.04" y1="104.016" x2="1429.64" y2="-77.7879" gradientUnits="userSpaceOnUse">
<stop stop-color="#97C3F9"/>
<stop offset="1" stop-color="#93C1F9"/>
</linearGradient>
<linearGradient id="paint50_linear_0_1" x1="1429" y1="60.9583" x2="1428.02" y2="220.986" gradientUnits="userSpaceOnUse">
<stop stop-color="#67C3F3"/>
<stop offset="1" stop-color="#5A98F2"/>
</linearGradient>
<linearGradient id="paint51_linear_0_1" x1="66.2771" y1="277.134" x2="-5.12449" y2="95.33" gradientUnits="userSpaceOnUse">
<stop stop-color="white"/>
<stop offset="1" stop-color="white"/>
</linearGradient>
<linearGradient id="paint52_linear_0_1" x1="66.2771" y1="277.134" x2="-5.12449" y2="95.33" gradientUnits="userSpaceOnUse">
<stop stop-color="white"/>
<stop offset="1" stop-color="white"/>
</linearGradient>
<linearGradient id="paint53_linear_0_1" x1="96.5582" y1="277.134" x2="25.1566" y2="95.33" gradientUnits="userSpaceOnUse">
<stop stop-color="white"/>
<stop offset="1" stop-color="white"/>
</linearGradient>
<linearGradient id="paint54_linear_0_1" x1="96.5582" y1="277.134" x2="25.1566" y2="95.33" gradientUnits="userSpaceOnUse">
<stop stop-color="white"/>
<stop offset="1" stop-color="white"/>
</linearGradient>
<linearGradient id="paint55_linear_0_1" x1="126.839" y1="277.134" x2="55.4376" y2="95.33" gradientUnits="userSpaceOnUse">
<stop stop-color="white"/>
<stop offset="1" stop-color="white"/>
</linearGradient>
<linearGradient id="paint56_linear_0_1" x1="126.839" y1="277.134" x2="55.4376" y2="95.33" gradientUnits="userSpaceOnUse">
<stop stop-color="white"/>
<stop offset="1" stop-color="white"/>
</linearGradient>
<linearGradient id="paint57_linear_0_1" x1="157.12" y1="277.134" x2="85.7187" y2="95.33" gradientUnits="userSpaceOnUse">
<stop stop-color="white"/>
<stop offset="1" stop-color="white"/>
</linearGradient>
<linearGradient id="paint58_linear_0_1" x1="157.12" y1="277.134" x2="85.7187" y2="95.33" gradientUnits="userSpaceOnUse">
<stop stop-color="white"/>
<stop offset="1" stop-color="white"/>
</linearGradient>
<linearGradient id="paint59_linear_0_1" x1="66.2771" y1="303.303" x2="-5.12327" y2="121.501" gradientUnits="userSpaceOnUse">
<stop stop-color="white"/>
<stop offset="1" stop-color="white"/>
</linearGradient>
<linearGradient id="paint60_linear_0_1" x1="66.2771" y1="303.303" x2="-5.12327" y2="121.501" gradientUnits="userSpaceOnUse">
<stop stop-color="white"/>
<stop offset="1" stop-color="white"/>
</linearGradient>
<linearGradient id="paint61_linear_0_1" x1="96.5582" y1="303.303" x2="25.1578" y2="121.501" gradientUnits="userSpaceOnUse">
<stop stop-color="white"/>
<stop offset="1" stop-color="white"/>
</linearGradient>
<linearGradient id="paint62_linear_0_1" x1="96.5582" y1="303.303" x2="25.1578" y2="121.501" gradientUnits="userSpaceOnUse">
<stop stop-color="white"/>
<stop offset="1" stop-color="white"/>
</linearGradient>
<linearGradient id="paint63_linear_0_1" x1="126.839" y1="303.303" x2="55.4389" y2="121.501" gradientUnits="userSpaceOnUse">
<stop stop-color="white"/>
<stop offset="1" stop-color="white"/>
</linearGradient>
<linearGradient id="paint64_linear_0_1" x1="126.839" y1="303.303" x2="55.4389" y2="121.501" gradientUnits="userSpaceOnUse">
<stop stop-color="white"/>
<stop offset="1" stop-color="white"/>
</linearGradient>
<linearGradient id="paint65_linear_0_1" x1="157.12" y1="303.303" x2="85.7199" y2="121.501" gradientUnits="userSpaceOnUse">
<stop stop-color="white"/>
<stop offset="1" stop-color="white"/>
</linearGradient>
<linearGradient id="paint66_linear_0_1" x1="157.12" y1="303.303" x2="85.7199" y2="121.501" gradientUnits="userSpaceOnUse">
<stop stop-color="white"/>
<stop offset="1" stop-color="white"/>
</linearGradient>
<linearGradient id="paint67_linear_0_1" x1="66.2771" y1="329.421" x2="-5.12449" y2="147.618" gradientUnits="userSpaceOnUse">
<stop stop-color="white"/>
<stop offset="1" stop-color="white"/>
</linearGradient>
<linearGradient id="paint68_linear_0_1" x1="66.2771" y1="329.421" x2="-5.12449" y2="147.618" gradientUnits="userSpaceOnUse">
<stop stop-color="white"/>
<stop offset="1" stop-color="white"/>
</linearGradient>
<linearGradient id="paint69_linear_0_1" x1="96.5582" y1="329.421" x2="25.1566" y2="147.618" gradientUnits="userSpaceOnUse">
<stop stop-color="white"/>
<stop offset="1" stop-color="white"/>
</linearGradient>
<linearGradient id="paint70_linear_0_1" x1="96.5582" y1="329.421" x2="25.1566" y2="147.618" gradientUnits="userSpaceOnUse">
<stop stop-color="white"/>
<stop offset="1" stop-color="white"/>
</linearGradient>
<linearGradient id="paint71_linear_0_1" x1="126.839" y1="329.421" x2="55.4376" y2="147.618" gradientUnits="userSpaceOnUse">
<stop stop-color="white"/>
<stop offset="1" stop-color="white"/>
</linearGradient>
<linearGradient id="paint72_linear_0_1" x1="126.839" y1="329.421" x2="55.4376" y2="147.618" gradientUnits="userSpaceOnUse">
<stop stop-color="white"/>
<stop offset="1" stop-color="white"/>
</linearGradient>
<linearGradient id="paint73_linear_0_1" x1="157.12" y1="329.421" x2="85.7187" y2="147.618" gradientUnits="userSpaceOnUse">
<stop stop-color="white"/>
<stop offset="1" stop-color="white"/>
</linearGradient>
<linearGradient id="paint74_linear_0_1" x1="157.12" y1="329.421" x2="85.7187" y2="147.618" gradientUnits="userSpaceOnUse">
<stop stop-color="white"/>
<stop offset="1" stop-color="white"/>
</linearGradient>
<linearGradient id="paint75_linear_0_1" x1="66.2771" y1="355.592" x2="-5.12449" y2="173.788" gradientUnits="userSpaceOnUse">
<stop stop-color="white"/>
<stop offset="1" stop-color="white"/>
</linearGradient>
<linearGradient id="paint76_linear_0_1" x1="66.2771" y1="355.592" x2="-5.12449" y2="173.788" gradientUnits="userSpaceOnUse">
<stop stop-color="white"/>
<stop offset="1" stop-color="white"/>
</linearGradient>
<linearGradient id="paint77_linear_0_1" x1="96.5582" y1="355.592" x2="25.1566" y2="173.788" gradientUnits="userSpaceOnUse">
<stop stop-color="white"/>
<stop offset="1" stop-color="white"/>
</linearGradient>
<linearGradient id="paint78_linear_0_1" x1="96.5582" y1="355.592" x2="25.1566" y2="173.788" gradientUnits="userSpaceOnUse">
<stop stop-color="white"/>
<stop offset="1" stop-color="white"/>
</linearGradient>
<linearGradient id="paint79_linear_0_1" x1="126.839" y1="355.592" x2="55.4376" y2="173.788" gradientUnits="userSpaceOnUse">
<stop stop-color="white"/>
<stop offset="1" stop-color="white"/>
</linearGradient>
<linearGradient id="paint80_linear_0_1" x1="126.839" y1="355.592" x2="55.4376" y2="173.788" gradientUnits="userSpaceOnUse">
<stop stop-color="white"/>
<stop offset="1" stop-color="white"/>
</linearGradient>
<linearGradient id="paint81_linear_0_1" x1="157.12" y1="355.592" x2="85.7187" y2="173.788" gradientUnits="userSpaceOnUse">
<stop stop-color="white"/>
<stop offset="1" stop-color="white"/>
</linearGradient>
<linearGradient id="paint82_linear_0_1" x1="157.12" y1="355.592" x2="85.7187" y2="173.788" gradientUnits="userSpaceOnUse">
<stop stop-color="white"/>
<stop offset="1" stop-color="white"/>
</linearGradient>
<linearGradient id="paint83_linear_0_1" x1="66.2771" y1="381.709" x2="-5.12449" y2="199.905" gradientUnits="userSpaceOnUse">
<stop stop-color="white"/>
<stop offset="1" stop-color="white"/>
</linearGradient>
<linearGradient id="paint84_linear_0_1" x1="66.2771" y1="381.709" x2="-5.12449" y2="199.905" gradientUnits="userSpaceOnUse">
<stop stop-color="white"/>
<stop offset="1" stop-color="white"/>
</linearGradient>
<linearGradient id="paint85_linear_0_1" x1="96.5582" y1="381.709" x2="25.1566" y2="199.905" gradientUnits="userSpaceOnUse">
<stop stop-color="white"/>
<stop offset="1" stop-color="white"/>
</linearGradient>
<linearGradient id="paint86_linear_0_1" x1="96.5582" y1="381.709" x2="25.1566" y2="199.905" gradientUnits="userSpaceOnUse">
<stop stop-color="white"/>
<stop offset="1" stop-color="white"/>
</linearGradient>
<linearGradient id="paint87_linear_0_1" x1="126.839" y1="381.709" x2="55.4376" y2="199.905" gradientUnits="userSpaceOnUse">
<stop stop-color="white"/>
<stop offset="1" stop-color="white"/>
</linearGradient>
<linearGradient id="paint88_linear_0_1" x1="126.839" y1="381.709" x2="55.4376" y2="199.905" gradientUnits="userSpaceOnUse">
<stop stop-color="white"/>
<stop offset="1" stop-color="white"/>
</linearGradient>
<linearGradient id="paint89_linear_0_1" x1="157.12" y1="381.709" x2="85.7187" y2="199.905" gradientUnits="userSpaceOnUse">
<stop stop-color="white"/>
<stop offset="1" stop-color="white"/>
</linearGradient>
<linearGradient id="paint90_linear_0_1" x1="157.12" y1="381.709" x2="85.7187" y2="199.905" gradientUnits="userSpaceOnUse">
<stop stop-color="white"/>
<stop offset="1" stop-color="white"/>
</linearGradient>
</defs>
</svg>
